<?xml version="1.0" encoding="utf-8"?>
<svg viewBox="0 0 175.216 175.552" xmlns="http://www.w3.org/2000/svg">
  <path d="M 87.184 25.227 C 53.451 25.227 26.018 52.65 26.006 86.357 C 25.989 97.867 29.231 109.147 35.355 118.892 C 41.572 129.761 52.063 136.451 56.012 139.018 C 65.399 144.589 76.162 147.535 87.138 147.541 L 87.161 147.541 C 120.868 147.541 148.301 120.115 148.314 86.406 C 148.365 70.178 141.922 54.603 130.419 43.155 C 118.98 31.644 103.412 25.189 87.184 25.227 Z" style="fill: rgb(255, 255, 255);"/>
  <path fill-rule="evenodd" d="M68.772 55.603c-1.378-3.061-2.828-3.123-4.137-3.176l-3.524-.043c-1.226 0-3.218.46-4.902 2.3s-6.435 6.287-6.435 15.332 6.588 17.785 7.506 19.013 12.718 20.381 31.405 27.75c15.529 6.124 18.689 4.906 22.061 4.6s10.877-4.447 12.408-8.74 1.532-7.971 1.073-8.74-1.685-1.226-3.525-2.146-10.877-5.367-12.562-5.981-2.91-.919-4.137.921-4.746 5.979-5.819 7.206-2.144 1.381-3.984.462-7.76-2.861-14.784-9.124c-5.465-4.873-9.154-10.891-10.228-12.73s-.114-2.835.808-3.751c.825-.824 1.838-2.147 2.759-3.22s1.224-1.84 1.836-3.065.307-2.301-.153-3.22-4.032-10.011-5.666-13.647" style="fill: rgb(50, 187, 69);"/>
</svg>